<svg width="24" height="24" viewBox="0 0 24 24" fill="none" xmlns="http://www.w3.org/2000/svg">
<path d="M9.59086 9.59085C8.9743 10.2074 8.59296 11.0592 8.59296 12C8.59296 13.8817 10.1183 15.407 12 15.407C12.9408 15.407 13.7926 15.0257 14.4092 14.4091M9.59086 9.59085L7.25309 7.25307M9.59086 9.59085L14.4092 14.4091M4.76002 4.76001L7.25309 7.25307M7.25309 7.25307C5.56401 8.1774 4.15367 9.57964 3.18769 11.2872C2.93744 11.7296 2.93744 12.2704 3.18769 12.7128C4.96486 15.8543 8.2461 17.9623 12 17.9623C13.7135 17.9623 15.3285 17.5231 16.7469 16.7469M16.7469 16.7469L19.24 19.24M16.7469 16.7469L14.4092 14.4091M10.4225 6.16369C10.9367 6.08071 11.4635 6.03765 12 6.03765C15.7539 6.03765 19.0351 8.14565 20.8123 11.2872C21.0626 11.7296 21.0626 12.2704 20.8123 12.7128C20.3566 13.5182 19.8021 14.2558 19.1661 14.9073M15.2576 10.9988C14.9271 9.9223 14.0777 9.07289 13.0012 8.74243" stroke="#BEBEBE" stroke-width="2" stroke-linecap="round" stroke-linejoin="round"/>
</svg>
