<svg width="226" height="98" viewBox="0 0 226 98" fill="none" xmlns="http://www.w3.org/2000/svg">
<path d="M57.4152 78.3001C54.3741 78.3001 51.633 77.6199 49.1921 76.2593C46.7912 74.8588 44.8904 72.9581 43.4899 70.5572C42.0894 68.1162 41.3891 65.3352 41.3891 62.214C41.3891 59.0528 42.0894 56.2717 43.4899 53.8708C44.8904 51.4699 46.7912 49.5891 49.1921 48.2286C51.593 46.8681 54.3341 46.1878 57.4152 46.1878C60.5364 46.1878 63.2975 46.8681 65.6984 48.2286C68.1393 49.5891 70.0401 51.4699 71.4006 53.8708C72.8011 56.2717 73.5014 59.0528 73.5014 62.214C73.5014 65.3352 72.8011 68.1162 71.4006 70.5572C70.0401 72.9581 68.1393 74.8588 65.6984 76.2593C63.2575 77.6199 60.4964 78.3001 57.4152 78.3001ZM57.4152 74.5187C59.6961 74.5187 61.7169 74.0185 63.4775 73.0181C65.2382 71.9777 66.6187 70.5371 67.6191 68.6964C68.6595 66.8157 69.1797 64.6549 69.1797 62.214C69.1797 59.733 68.6595 57.5722 67.6191 55.7315C66.6187 53.8908 65.2382 52.4702 63.4775 51.4699C61.7169 50.4295 59.7161 49.9093 57.4753 49.9093C55.2344 49.9093 53.2336 50.4295 51.473 51.4699C49.7123 52.4702 48.3118 53.8908 47.2714 55.7315C46.231 57.5722 45.7108 59.733 45.7108 62.214C45.7108 64.6549 46.231 66.8157 47.2714 68.6964C48.3118 70.5371 49.7123 71.9777 51.473 73.0181C53.2336 74.0185 55.2144 74.5187 57.4152 74.5187ZM128.099 78.3001C124.818 78.3001 121.937 77.6199 119.456 76.2593C116.975 74.8588 115.034 72.9581 113.634 70.5572C112.233 68.1162 111.533 65.3352 111.533 62.214C111.533 59.0928 112.193 56.3317 113.514 53.9308C114.874 51.5299 116.715 49.6492 119.036 48.2886C121.397 46.8881 124.038 46.1878 126.959 46.1878C129.92 46.1878 132.541 46.8681 134.822 48.2286C137.143 49.5491 138.964 51.4298 140.284 53.8708C141.605 56.2717 142.265 59.0528 142.265 62.214C142.265 62.414 142.245 62.6341 142.205 62.8742C142.205 63.0743 142.205 63.2944 142.205 63.5345H114.774V60.3533H139.924L138.243 61.6137C138.243 59.3329 137.743 57.3121 136.743 55.5514C135.782 53.7507 134.462 52.3502 132.781 51.3498C131.101 50.3494 129.16 49.8492 126.959 49.8492C124.798 49.8492 122.857 50.3494 121.137 51.3498C119.416 52.3502 118.076 53.7507 117.115 55.5514C116.155 57.3521 115.675 59.4129 115.675 61.7338V62.394C115.675 64.795 116.195 66.9158 117.235 68.7565C118.316 70.5572 119.796 71.9777 121.677 73.0181C123.598 74.0185 125.779 74.5187 128.219 74.5187C130.14 74.5187 131.921 74.1785 133.562 73.4983C135.242 72.818 136.683 71.7776 137.883 70.3771L140.284 73.1381C138.884 74.8188 137.123 76.0993 135.002 76.9796C132.921 77.8599 130.62 78.3001 128.099 78.3001ZM150.939 78V46.488H155.021V55.0712L154.6 53.5707C155.481 51.1697 156.961 49.349 159.042 48.1086C161.123 46.8281 163.704 46.1878 166.785 46.1878V50.3294C166.625 50.3294 166.465 50.3294 166.305 50.3294C166.145 50.2894 165.985 50.2694 165.825 50.2694C162.504 50.2694 159.903 51.2898 158.022 53.3306C156.141 55.3313 155.201 58.1924 155.201 61.9139V78H150.939ZM215.587 78V71.0373L215.407 69.8969V58.2524C215.407 55.5714 214.646 53.5106 213.126 52.0701C211.645 50.6295 209.424 49.9093 206.463 49.9093C204.422 49.9093 202.482 50.2494 200.641 50.9296C198.8 51.6099 197.24 52.5103 195.959 53.6307L194.038 50.4495C195.639 49.0889 197.56 48.0485 199.801 47.3283C202.041 46.568 204.402 46.1878 206.883 46.1878C210.965 46.1878 214.106 47.2082 216.307 49.249C218.548 51.2498 219.668 54.3109 219.668 58.4325V78H215.587ZM204.722 78.3001C202.362 78.3001 200.301 77.92 198.54 77.1597C196.819 76.3594 195.499 75.279 194.579 73.9184C193.658 72.5179 193.198 70.9173 193.198 69.1166C193.198 67.476 193.578 65.9954 194.339 64.6749C195.139 63.3144 196.419 62.234 198.18 61.4337C199.981 60.5933 202.382 60.1732 205.383 60.1732H216.247V63.3544H205.503C202.462 63.3544 200.341 63.8946 199.14 64.975C197.98 66.0554 197.4 67.3959 197.4 68.9966C197.4 70.7972 198.1 72.2378 199.5 73.3182C200.901 74.3986 202.862 74.9388 205.383 74.9388C207.784 74.9388 209.844 74.3986 211.565 73.3182C213.326 72.1978 214.606 70.5972 215.407 68.5164L216.367 71.4575C215.567 73.5383 214.166 75.1989 212.165 76.4394C210.205 77.6799 207.724 78.3001 204.722 78.3001Z" fill="#1A1A1A"/>
<path d="M174.561 78V46.488H178.643V55.0712L178.223 53.5707C179.103 51.1697 180.584 49.349 182.665 48.1086C184.745 46.8281 187.326 46.1878 190.407 46.1878V50.3294C190.247 50.3294 190.087 50.3294 189.927 50.3294C189.767 50.2894 189.607 50.2694 189.447 50.2694C186.126 50.2694 183.525 51.2898 181.644 53.3306C179.763 55.3313 178.823 58.1924 178.823 61.9139V78H174.561Z" fill="#B90000"/>
<path d="M5.9916 44.4475C5.63606 43.3284 6.4713 42.1866 7.64549 42.1866H10.3881C11.1532 42.1866 11.828 42.6877 12.0493 43.4202L21.9242 76.1095C22.2607 77.2236 21.4268 78.3466 20.2629 78.3466L18.0311 78.3466C17.2752 78.3466 16.6062 77.8572 16.3773 77.1367L5.9916 44.4475Z" fill="#B90000"/>
<path d="M41.8468 36.7221C42.2322 35.7971 42.4249 35.3346 42.4133 34.9595C42.3927 34.2983 41.9981 33.7064 41.3957 33.4331C41.054 33.2781 40.5529 33.2781 39.5508 33.2781C39.0766 33.2781 38.8395 33.2781 38.6273 33.3325C38.2559 33.4278 37.9265 33.6434 37.6906 33.9457C37.5558 34.1184 37.4609 34.3357 37.2712 34.7703L20.0136 74.306C19.4073 75.695 19.1041 76.3895 19.2315 76.9466C19.324 77.3511 19.5583 77.7091 19.892 77.9557C20.3517 78.2953 21.1095 78.2953 22.625 78.2953C23.3411 78.2953 23.6992 78.2953 24.0073 78.1731C24.2346 78.083 24.4402 77.9459 24.6108 77.7708C24.8421 77.5333 24.9798 77.2028 25.2552 76.5418L41.8468 36.7221Z" fill="#B90000"/>
<path d="M107.265 33C108.223 33 109 33.7769 109 34.7354V36.2646C109 37.2231 108.223 38 107.265 38H38.5632C37.3355 38 36.496 36.76 36.9519 35.6201L37.5637 34.0909C37.8272 33.432 38.4653 33 39.1749 33H107.265Z" fill="#B90000"/>
<path d="M88.5032 72.885C88.5032 73.8434 87.7262 74.6204 86.7678 74.6204L85.0325 74.6204C84.0741 74.6204 83.2971 73.8434 83.2971 72.885V24.295C83.2971 23.3366 84.0741 22.5597 85.0325 22.5597H86.7678C87.7262 22.5597 88.5032 23.3366 88.5032 24.295V72.885Z" fill="#B90000"/>
<path d="M83.2971 73.2933H107.928C108.887 73.2933 109.664 74.0703 109.664 75.0287V76.5599C109.664 77.5183 108.887 78.2952 107.928 78.2952H86.7678C84.851 78.2952 83.2971 76.7414 83.2971 74.8245V73.2933Z" fill="#B90000"/>
</svg>
